<?xml version="1.0" encoding="UTF-8" standalone="no"?>
<svg
   xmlns:dc="http://purl.org/dc/elements/1.1/"
   xmlns:cc="http://creativecommons.org/ns#"
   xmlns:rdf="http://www.w3.org/1999/02/22-rdf-syntax-ns#"
   xmlns:svg="http://www.w3.org/2000/svg"
   xmlns="http://www.w3.org/2000/svg"
   xmlns:sodipodi="http://sodipodi.sourceforge.net/DTD/sodipodi-0.dtd"
   xmlns:inkscape="http://www.inkscape.org/namespaces/inkscape"
   version="1.1"
   id="Capa_1"
   x="0px"
   y="0px"
   viewBox="0 0 40.000001 40.000001"
   xml:space="preserve"
   sodipodi:docname="console.svg"
   width="40"
   height="40"
   inkscape:version="1.0.1 (3bc2e813f5, 2020-09-07)"><metadata
   id="metadata73"><rdf:RDF><cc:Work
       rdf:about=""><dc:format>image/svg+xml</dc:format><dc:type
         rdf:resource="http://purl.org/dc/dcmitype/StillImage" /><dc:title></dc:title></cc:Work></rdf:RDF></metadata><defs
   id="defs71" /><sodipodi:namedview
   pagecolor="#ffffff"
   bordercolor="#666666"
   borderopacity="1"
   objecttolerance="10"
   gridtolerance="10"
   guidetolerance="10"
   inkscape:pageopacity="0"
   inkscape:pageshadow="2"
   inkscape:window-width="1600"
   inkscape:window-height="815"
   id="namedview69"
   showgrid="false"
   inkscape:zoom="1.7655577"
   inkscape:cx="110.53794"
   inkscape:cy="74.401867"
   inkscape:window-x="0"
   inkscape:window-y="0"
   inkscape:window-maximized="1"
   inkscape:current-layer="Capa_1" />




















<g
   id="g108"
   transform="matrix(0.50153029,0,0,0.50153029,-60.532225,-60.531808)"
   style="stroke-width:1.9939"><g
     id="g6"
     transform="matrix(0.20707799,0,0,0.20707799,127.32187,127.32121)"
     style="stroke-width:9.62873">
	<g
   id="g4"
   style="stroke-width:9.62873">
		<path
   d="m 320.973,200.981 c -0.8,-18.4 -4,-38.8 -8.8,-58 -4.8,-18.4 -10.8,-35.6 -18,-48.8 -28,-49.2 -58.4,-41.6 -94.8,-32 -11.6,2.8 -24,6 -36.8,7.2 h -4 c -12.8,-1.2 -25.2,-4.4 -36.8,-7.2 -36.4,-9.2 -66.8,-17.2 -94.8,32.4 -7.2,13.2 -13.6,30.4 -18,48.8 -4.8,19.2 -8,39.6 -8.8,58 -0.8,20.4 1.2,35.2 5.6,45.6 4.4,9.6 10.8,15.6 19.2,18 7.6,2 16.4,1.2 25.6,-2.8 15.6,-6.4 33.6,-20 51.2,-36.4 12.4,-12 35.6,-18 58.8,-18 23.2,0 46.4,6 58.8,18 17.6,16.4 35.6,30 51.2,36.4 9.2,3.6 18,4.8 25.6,2.8 8,-2.4 14.8,-8 19.2,-18.4 4.4,-10 6.4,-24.8 5.6,-45.6 z m -19.2,40 c -2.4,5.6 -5.6,8.8 -9.6,10 -4.4,1.2 -10,0.4 -16.4,-2 -14,-5.6 -30.4,-18 -46.4,-33.2 -15.2,-15.2 -42,-22.8 -68.8,-22.8 -26.8,0 -53.6,7.6 -69.2,22 -16.4,15.2 -32.8,28 -46.4,33.2 -6.4,2.4 -12,3.6 -16.4,2 -4,-1.2 -7.2,-4.4 -9.6,-10 -3.2,-7.6 -4.8,-20 -4,-38.4 0.8,-17.2 3.6,-36.8 8.4,-55.2 4.4,-17.2 10,-33.2 16.8,-45.2 22,-39.6 47.6,-33.2 78,-25.2 12.4,3.2 25.2,6.4 39.2,7.6 0.4,0 0.4,0 0.8,0 h 4.4 c 0.4,0 0.4,0 0.8,0 14.4,-1.2 27.2,-4.4 39.6,-7.6 30.4,-7.6 56,-14.4 78,25.2 6.8,12 12.4,27.6 16.8,45.2 4.4,18.4 7.6,37.6 8.4,55.2 0.8,18.4 -0.8,30.8 -4.4,39.2 z"
   id="path2"
   style="stroke-width:9.62873" />
	</g>
</g><g
     id="g12"
     transform="matrix(0.20707799,0,0,0.20707799,127.32187,127.32121)"
     style="stroke-width:9.62873">
	<g
   id="g10"
   style="stroke-width:9.62873">
		<path
   d="m 123.773,122.981 c -4,-3.6 -8.8,-6.4 -14.4,-6.8 -0.4,-5.2 -2.8,-10.4 -6.4,-14 l -0.4,-0.4 c -4.4,-4.4 -10,-6.8 -16.4,-6.8 -6.4,0 -12.4,2.8 -16.4,6.8 -3.6,3.6 -6.4,8.8 -6.8,14.4 -5.6,0.4 -10.4,2.8 -14.4,6.4 l -0.4,0.4 c -4.4,4.4 -6.8,10 -6.8,16.4 0,6.4 2.8,12.4 6.8,16.4 4,4 8.8,6.4 14.8,6.8 0.4,5.6 2.8,10.8 6.8,14.4 4.4,4.4 10,6.8 16.4,6.8 6.4,0 12.4,-2.8 16.4,-6.8 3.6,-4 6.4,-8.8 6.8,-14.4 5.6,-0.4 10.8,-2.8 14.4,-6.8 4.4,-4.4 6.8,-10 6.8,-16.4 0,-6.4 -2.8,-12.4 -6.8,-16.4 z m -10,22.4 c -1.6,1.6 -3.6,2.4 -6,2.4 h -5.6 c -4,0 -7.6,3.2 -7.6,7.6 v 5.2 c 0,2.4 -0.8,4.4 -2.4,6 -1.6,1.6 -3.6,2.4 -6,2.4 -2.4,0 -4.4,-0.8 -6,-2.4 -1.6,-1.6 -2.4,-3.6 -2.4,-6 v -5.6 c 0,-4 -3.2,-7.6 -7.6,-7.6 h -5.6 c -2.4,0 -4.4,-0.8 -6,-2.4 -1.2,-1.2 -2.4,-3.2 -2.4,-5.6 0,-2.4 0.8,-4.4 2.4,-6 0,0 0,0 0.4,-0.4 1.6,-1.2 3.6,-2 5.6,-2 h 5.6 c 4,0 7.6,-3.2 7.6,-7.6 v -5.6 c 0,-2.4 0.8,-4.4 2.4,-6 1.6,-1.6 3.6,-2.4 6,-2.4 2.4,0 4.4,0.8 6,2.4 0,0 0,0 0.4,0.4 1.2,1.6 2,3.6 2,5.6 v 5.6 c 0,4 3.2,7.6 7.6,7.6 h 5.6 c 2.4,0 4.4,0.8 6,2.4 1.6,1.6 2.4,3.6 2.4,6 0,2.4 -0.8,4.4 -2.4,6 z"
   id="path8"
   style="stroke-width:9.62873" />
	</g>
</g><g
     id="g18"
     transform="matrix(0.20707799,0,0,0.20707799,127.32187,127.32121)"
     style="stroke-width:9.62873">
	<g
   id="g16"
   style="stroke-width:9.62873">
		<circle
   cx="230.173"
   cy="110.981"
   r="14"
   id="circle14"
   style="stroke-width:9.62873" />
	</g>
</g><g
     id="g24"
     transform="matrix(0.20707799,0,0,0.20707799,127.32187,127.32121)"
     style="stroke-width:9.62873">
	<g
   id="g22"
   style="stroke-width:9.62873">
		<circle
   cx="230.173"
   cy="167.78101"
   r="14"
   id="circle20"
   style="stroke-width:9.62873" />
	</g>
</g><g
     id="g30"
     transform="matrix(0.20707799,0,0,0.20707799,127.32187,127.32121)"
     style="stroke-width:9.62873">
	<g
   id="g28"
   style="stroke-width:9.62873">
		<circle
   cx="201.77299"
   cy="139.381"
   r="14"
   id="circle26"
   style="stroke-width:9.62873" />
	</g>
</g><g
     id="g36"
     transform="matrix(0.20707799,0,0,0.20707799,127.32187,127.32121)"
     style="stroke-width:9.62873">
	<g
   id="g34"
   style="stroke-width:9.62873">
		<circle
   cx="258.573"
   cy="139.381"
   r="14"
   id="circle32"
   style="stroke-width:9.62873" />
	</g>
</g><g
     id="g38"
     transform="matrix(0.20707799,0,0,0.20707799,127.32187,127.32121)"
     style="stroke-width:9.62873">
</g><g
     id="g40"
     transform="matrix(0.20707799,0,0,0.20707799,127.32187,127.32121)"
     style="stroke-width:9.62873">
</g><g
     id="g42"
     transform="matrix(0.20707799,0,0,0.20707799,127.32187,127.32121)"
     style="stroke-width:9.62873">
</g><g
     id="g44"
     transform="matrix(0.20707799,0,0,0.20707799,127.32187,127.32121)"
     style="stroke-width:9.62873">
</g><g
     id="g46"
     transform="matrix(0.20707799,0,0,0.20707799,127.32187,127.32121)"
     style="stroke-width:9.62873">
</g><g
     id="g48"
     transform="matrix(0.20707799,0,0,0.20707799,127.32187,127.32121)"
     style="stroke-width:9.62873">
</g><g
     id="g50"
     transform="matrix(0.20707799,0,0,0.20707799,127.32187,127.32121)"
     style="stroke-width:9.62873">
</g><g
     id="g52"
     transform="matrix(0.20707799,0,0,0.20707799,127.32187,127.32121)"
     style="stroke-width:9.62873">
</g><g
     id="g54"
     transform="matrix(0.20707799,0,0,0.20707799,127.32187,127.32121)"
     style="stroke-width:9.62873">
</g><g
     id="g56"
     transform="matrix(0.20707799,0,0,0.20707799,127.32187,127.32121)"
     style="stroke-width:9.62873">
</g><g
     id="g58"
     transform="matrix(0.20707799,0,0,0.20707799,127.32187,127.32121)"
     style="stroke-width:9.62873">
</g><g
     id="g60"
     transform="matrix(0.20707799,0,0,0.20707799,127.32187,127.32121)"
     style="stroke-width:9.62873">
</g><g
     id="g62"
     transform="matrix(0.20707799,0,0,0.20707799,127.32187,127.32121)"
     style="stroke-width:9.62873">
</g><g
     id="g64"
     transform="matrix(0.20707799,0,0,0.20707799,127.32187,127.32121)"
     style="stroke-width:9.62873">
</g><g
     id="g66"
     transform="matrix(0.20707799,0,0,0.20707799,127.32187,127.32121)"
     style="stroke-width:9.62873">
</g></g>
</svg>
